# xmcd
#
# Track frame offsets:
#	150
#	11410
#	23495
#	36983
#	49652
#	62317
#	76494
#	87776
#	110460
#	122580
#	135772
#	146781
#	156015
#	167769
#	178424
#	189443
#	198125
#	207144
#	218230
#	228632
#	238297
#	249160
#	259962
#	270301
#	283728
#	295566
#	304583
#	314425
#
# Disc length: 4338 seconds
#
# Revision: 0
# Processed by: cddbd v1.5.1PL0 Copyright (c) Steve Scherf et al.
# Submitted via: audiograbber 1.81.03
#
DISCID=8010f01c
DTITLE=Big Joe Turner - Rhythm and Blues Years
DYEAR=1900
DGENRE=R&B
TTITLE0=Dont You Cry
TTITLE1=Poor Lovers Blues
TTITLE2=Still In Love
TTITLE3=TV Mama
TTITLE4=Married Woman
TTITLE5=You Know I Love You
TTITLE6=Midnight Cannonball
TTITLE7=In The Evening
TTITLE8=Morning, Noon and Night
TTITLE9=Ti-Ri-Lee
TTITLE10=Lipstick, Powder, And Paint
TTITLE11=Rock A While
TTITLE12=After A While
TTITLE13=Trouble In Mind
TTITLE14=World Of Trouble
TTITLE15=Love Roller Coaster
TTITLE16=I Need A Girl
TTITLE17=Teenage Letter
TTITLE18=Wee Baby Blues
TTITLE19=(We're Gonna) Jump For Joy
TTITLE20=Sweet Sue
TTITLE21=My Reasons For Living
TTITLE22=Love Oh Careless Love
TTITLE23=Got You On My Mind
TTITLE24=Chains Of Love
TTITLE25=My Little Honeydripper
TTITLE26=Tomorrow Night
TTITLE27=Honey, Hush
EXTD=
EXTT0=
EXTT1=
EXTT2=
EXTT3=
EXTT4=
EXTT5=
EXTT6=
EXTT7=
EXTT8=
EXTT9=
EXTT10=
EXTT11=
EXTT12=
EXTT13=
EXTT14=
EXTT15=
EXTT16=
EXTT17=
EXTT18=
EXTT19=
EXTT20=
EXTT21=
EXTT22=
EXTT23=
EXTT24=
EXTT25=
EXTT26=
EXTT27=
PLAYORDER=
